<svg width="42" height="42" viewBox="0 0 42 42" fill="none" xmlns="http://www.w3.org/2000/svg">
<rect x="12" y="8" width="19" height="18" fill="white"/>
<path d="M28.8633 6H14.1363C10.7472 6 8 8.78101 8 12.2113V23.0886C8 26.5189 10.7472 29.2994 14.1363 29.2994H17.6789L21.4998 36L25.3211 29.3003H28.8637C32.2528 29.3003 35 26.5197 35 23.0894V12.2117C35 8.78144 32.2528 6 28.8633 6ZM28.6237 18.4567L27.7128 19.3795L21.4989 25.6681L15.2868 19.3795L14.3759 18.4567C12.6602 16.7206 12.6602 13.9051 14.375 12.169C16.0915 10.4321 18.8741 10.4321 20.5897 12.169L21.4989 13.0897L22.409 12.169C24.1255 10.4321 26.9081 10.4321 28.6237 12.169C30.3394 13.9055 30.3394 16.7206 28.6237 18.4567Z" fill="#4CB74D"/>
</svg>
