<svg width="80" height="80" viewBox="0 0 80 80" fill="none" xmlns="http://www.w3.org/2000/svg">
<path d="M26.1204 18.3383C26.1204 23.3943 28.9477 27.8026 33.1047 30.0647L32.166 33.2892C29.563 32.8484 23.0045 32.1602 18.4082 35.2302C16.5442 34.8004 14.7111 34.5435 12.9811 34.5435C11.5849 34.5435 10.2917 34.7108 9.13734 35.0407L8.13517 35.3269L8.28819 36.3584C8.30484 36.4742 9.07708 41.7039 9.91989 47.9484C7.61822 48.3504 5.40456 50.2271 5.05253 53.8758C4.844 56.0364 5.25708 57.7014 6.27829 58.8265C7.19325 59.8342 8.5308 60.3448 10.2529 60.3448C10.6327 60.3448 11.0362 60.3186 11.4596 60.2679C11.8251 63.582 12.0709 66.3729 12.0709 67.888V69.1495L13.3308 69.0758C13.3387 69.075 14.1062 69.0306 15.3843 69.0306C19.8536 69.0306 31.0821 69.5713 38.8125 74.5814L39.4595 75L40.1056 74.5806C47.836 69.5705 59.0645 69.0298 63.5339 69.0298C64.8127 69.0298 65.5794 69.0742 65.5874 69.075L66.8472 69.1487V67.8873C66.8472 66.3729 67.0938 63.5812 67.4585 60.2671C67.8819 60.3178 68.2855 60.344 68.6652 60.344C70.3873 60.344 71.7241 59.8326 72.6399 58.8257C73.6611 57.7014 74.0741 56.0356 73.8656 53.875C73.5144 50.2263 71.3007 48.3504 68.9982 47.9476C69.8411 41.7031 70.6125 36.4726 70.63 36.3576L70.783 35.3261L69.78 35.0399C68.6256 34.71 67.3324 34.5427 65.9362 34.5427C64.2062 34.5427 62.3731 34.7996 60.5091 35.2294C55.9153 32.1602 49.3559 32.8484 46.7514 33.2884L45.8127 30.0639C49.9688 27.8019 52.797 23.3936 52.797 18.3375C52.7985 10.9837 46.8148 5 39.4595 5C32.1041 5 26.1204 10.9837 26.1204 18.3383ZM13.0398 57.1726C12.9573 57.3779 12.7996 57.6047 12.2501 57.7236C11.8743 57.8053 11.5254 57.8584 11.1893 57.8988C9.69948 58.0764 8.6093 57.8552 8.03923 57.2265C7.35261 56.4701 7.32407 55.1103 7.4208 54.1034C7.69275 51.28 9.28085 50.5173 10.2362 50.3151C10.3829 50.2842 10.5153 50.2652 10.6247 50.2548C12.044 52.486 13.5837 55.8104 13.0398 57.1726ZM38.2702 71.5122C30.183 67.1578 19.7292 66.6512 15.3851 66.6512C15.0212 66.6512 14.6961 66.6544 14.4154 66.6599C14.3314 64.9331 14.0983 62.4665 13.7883 59.6756C14.612 59.2387 15.0346 58.5902 15.2487 58.055C16.4293 55.0992 13.3887 50.1193 12.4166 48.6461C11.7458 43.6273 11.0965 39.1183 10.8016 37.0989C11.4787 36.9816 12.2081 36.9221 12.9819 36.9221C22.2956 36.9221 35.5269 45.2725 38.271 47.0731V71.5122H38.2702ZM68.6827 50.3143C69.6389 50.5173 71.2262 51.28 71.4981 54.1026C71.5949 55.1103 71.5663 56.4693 70.8797 57.2257C70.3081 57.8536 69.2195 58.0756 67.7297 57.898C67.3935 57.8576 67.0446 57.8045 66.6688 57.7228C66.1194 57.6039 65.9608 57.3771 65.8791 57.1718C65.336 55.8144 66.8758 52.4875 68.2942 50.2533C68.4044 50.2644 68.5368 50.2834 68.6827 50.3143ZM65.9378 36.9221C66.7116 36.9221 67.4411 36.9816 68.1182 37.0989C67.8232 39.1191 67.1739 43.6281 66.5031 48.6461C65.5303 50.1193 62.4897 55.0992 63.671 58.055C63.8851 58.5902 64.3077 59.2387 65.1315 59.6756C64.8215 62.4665 64.5884 64.9331 64.5043 66.6599C64.2236 66.6551 63.8986 66.6512 63.5347 66.6512C59.1906 66.6512 48.7367 67.1586 40.6495 71.5122V47.0723C43.3928 45.2725 56.6233 36.9221 65.9378 36.9221ZM46.1877 35.8224C46.2614 35.8058 52.3656 34.4088 57.1466 36.1697C49.3504 38.7132 41.7477 43.5005 39.4595 45.0045C37.1713 43.5005 29.5685 38.7132 21.7716 36.1689C26.5533 34.4072 32.6567 35.8042 32.7305 35.8216L33.8302 36.0809L35.3065 31.0082C36.6147 31.4379 38.0085 31.6781 39.4587 31.6781C40.9088 31.6781 42.3027 31.4379 43.6109 31.0074L45.088 36.0801L46.1877 35.8224ZM50.42 18.3383C50.42 24.3822 45.5034 29.2996 39.4595 29.2996C33.4155 29.2996 28.499 24.3822 28.499 18.3383C28.499 12.2951 33.4155 7.37858 39.4595 7.37858C45.5034 7.37858 50.42 12.2951 50.42 18.3383Z" fill="white"/>
</svg>
