<svg width="80" height="80" viewBox="0 0 80 80" fill="none" xmlns="http://www.w3.org/2000/svg">
<path d="M56.3387 38.0492C56.3387 28.4864 48.5354 20.6831 38.9726 20.6831C29.4097 20.6831 21.6064 28.4864 21.6064 38.0492C21.6064 39.4263 21.7595 40.8033 22.142 42.1804C22.601 44.3989 23.4425 45.776 24.5901 47.6886C24.8196 48.1476 25.1256 48.6066 25.4316 49.1421C25.8141 49.7542 26.1201 50.3662 26.5026 50.9017C28.0327 53.4263 28.9507 54.8799 28.9507 57.8635V65.0547C28.9507 66.8907 30.2513 68.3443 32.0109 68.6504C32.7759 72.552 35.0709 75 38.9726 75C42.8742 75 45.2458 72.552 45.9343 68.6504C47.6939 68.3443 48.9944 66.8142 48.9944 65.0547V57.8635C48.9944 54.8799 49.9125 53.3498 51.4425 50.9017C51.7485 50.3662 52.1311 49.7542 52.5136 49.1421C52.8196 48.6066 53.1256 48.1476 53.3551 47.6886C54.5026 45.776 55.3442 44.3989 55.8032 42.1804C56.1857 40.8033 56.3387 39.4263 56.3387 38.0492ZM46.0109 59.6995H32.0873V57.94C32.0873 57.5575 32.0874 57.2514 32.0109 56.9454H46.0109C46.0109 57.2514 45.9343 57.5575 45.9343 57.94V59.6995H46.0109ZM45.3223 65.7432H32.6229C32.2404 65.7432 32.0109 65.4373 32.0109 65.1312V62.7596H45.9343V65.1312C46.0108 65.4373 45.7048 65.7432 45.3223 65.7432ZM38.9726 72.0165C38.1311 72.0165 35.989 72.0164 35.1474 68.8033H42.8742C42.0327 72.0164 39.8141 72.0165 38.9726 72.0165ZM52.8196 41.5684C52.4371 43.2514 51.8251 44.399 50.754 46.1585C50.448 46.6175 50.2185 47.0766 49.9125 47.6121C49.53 48.2241 49.224 48.8361 48.9179 49.2951C47.9999 50.8252 47.1584 52.2022 46.6229 53.8088H31.4753C30.9398 52.2022 30.1748 50.8252 29.1802 49.2951C28.8742 48.7596 28.4917 48.2241 28.1857 47.6121C27.8797 47.0766 27.5737 46.541 27.3442 46.1585C26.2731 44.3225 25.6611 43.2514 25.2786 41.4919C24.9726 40.3443 24.8196 39.1968 24.8196 38.0492C24.8196 30.1695 31.2458 23.7432 39.1256 23.7432C47.0054 23.7432 53.4316 30.1695 53.4316 38.0492C53.2786 39.1968 53.1256 40.3443 52.8196 41.5684Z" fill="white"/>
<path d="M70.4918 36.5192H64.1421C63.3006 36.5192 62.6121 37.2077 62.6121 38.0492C62.6121 38.8908 63.3006 39.5793 64.1421 39.5793H70.4918C71.3334 39.5793 72.0219 38.8908 72.0219 38.0492C72.0219 37.2077 71.3334 36.5192 70.4918 36.5192Z" fill="white"/>
<path d="M56.7214 21.8307C57.1039 21.8307 57.4864 21.6777 57.7924 21.3717L62.3061 16.858C62.9181 16.246 62.9181 15.328 62.3061 14.716C61.694 14.104 60.776 14.104 60.164 14.716L55.6503 19.2296C55.0383 19.8416 55.0383 20.7597 55.6503 21.3717C55.9563 21.6777 56.3388 21.8307 56.7214 21.8307Z" fill="white"/>
<path d="M38.9727 14.4098C39.8142 14.4098 40.5027 13.7213 40.5027 12.8798V6.53006C40.5027 5.68853 39.8142 5 38.9727 5C38.1312 5 37.4426 5.68853 37.4426 6.53006V12.8798C37.4426 13.7213 38.1312 14.4098 38.9727 14.4098Z" fill="white"/>
<path d="M20.153 21.3717C20.459 21.6777 20.8415 21.8307 21.224 21.8307C21.6065 21.8307 21.9891 21.6777 22.2951 21.3717C22.9071 20.7597 22.9071 19.8416 22.2951 19.2296L17.7814 14.716C17.1694 14.104 16.2513 14.104 15.6393 14.716C15.0273 15.328 15.0273 16.246 15.6393 16.858L20.153 21.3717Z" fill="white"/>
<path d="M13.8798 36.5192H7.53006C6.68853 36.5192 6 37.2077 6 38.0492C6 38.8908 6.68853 39.5793 7.53006 39.5793H13.8798C14.7213 39.5793 15.4098 38.8908 15.4098 38.0492C15.4098 37.2077 14.7213 36.5192 13.8798 36.5192Z" fill="white"/>
<path d="M20.153 54.7268L15.6393 59.2405C15.0273 59.8525 15.0273 60.7706 15.6393 61.3826C15.9453 61.6886 16.3279 61.8416 16.7104 61.8416C17.0929 61.8416 17.4754 61.6886 17.7814 61.3826L22.2951 56.8689C22.9071 56.2569 22.9071 55.3389 22.2951 54.7268C21.683 54.1148 20.6885 54.1148 20.153 54.7268Z" fill="white"/>
<path d="M57.7924 54.7268C57.1803 54.1148 56.2623 54.1148 55.6503 54.7268C55.0383 55.3389 55.0383 56.2569 55.6503 56.8689L60.164 61.3826C60.47 61.6886 60.8525 61.8416 61.235 61.8416C61.6175 61.8416 62 61.6886 62.3061 61.3826C62.9181 60.7706 62.9181 59.8525 62.3061 59.2405L57.7924 54.7268Z" fill="white"/>
</svg>
