<svg width="80" height="80" viewBox="0 0 80 80" fill="none" xmlns="http://www.w3.org/2000/svg">
<path d="M18.3063 68.7382L19.7113 69.4584V30.365L18.3063 29.5381V68.7382Z" fill="white"/>
<path d="M38.3975 22.9096L38.4798 62.0162L39.462 61.5653L40.2889 61.6925V22.6664L39.6173 22.4344L38.3975 22.9096Z" fill="white"/>
<path d="M61.5849 28.7449L59.7758 29.7308V69.5127L61.5849 68.4445V28.7449Z" fill="white"/>
<path d="M59.3156 24.9284L55.978 23.5626L54.5655 27.1248L59.5438 29.1602L73.4013 21.6413V63.1238L59.3156 70.7662L44.5265 64.7159L39.7707 62.7983H39.462L19.9135 70.7662L5.83152 63.1238V21.6413L19.6852 29.1602L39.6173 21.0089L44.5751 23.0369L42.5901 18.0848L39.6173 16.8687L19.9135 24.9284L2 15.2018V65.4025L19.6852 75L39.6173 66.8468L59.5438 75L77.2309 65.4025V15.2018L59.3156 24.9284Z" fill="white"/>
<path d="M50.4009 5C46.1092 5 42.6238 8.48166 42.6238 12.7772C42.6238 13.576 42.7809 14.33 43.0036 15.0559H42.9718L50.4009 33.6035L58.0135 14.4142H57.9985C58.1126 13.8866 58.1781 13.3403 58.1781 12.7772C58.1781 8.48166 54.6964 5 50.4009 5ZM50.4009 16.4758C48.5638 16.4758 47.0708 14.9829 47.0708 13.1457C47.0708 11.3085 48.5638 9.81372 50.4009 9.81372C52.2381 9.81372 53.7329 11.3067 53.7329 13.1457C53.7329 14.9829 52.24 16.4758 50.4009 16.4758Z" fill="white"/>
</svg>
