<svg width="90" height="87" viewBox="0 0 90 87" fill="none" xmlns="http://www.w3.org/2000/svg">
<path d="M13.56 56.15C14.98 55 16.78 54.3 18.72 54.3C21.05 54.3 23.17 55.29 24.68 56.87C26.19 58.44 27.12 60.61 27.12 63C27.12 65.08 26.4 67 25.21 68.5L25.2 68.51V68.5201C24.99 68.7901 24.79 68.99 24.61 69.18L20.64 73.58C26.93 79.72 35.53 83.53 45.01 83.53C47.28 83.53 49.5 83.31 51.64 82.9C52.43 82.75 53.19 83.26 53.34 84.05C53.5 84.84 52.98 85.6 52.19 85.75C49.87 86.2 47.46 86.44 45.01 86.44C34.79 86.44 25.49 82.33 18.7 75.73L17.3 77.28C16.3 78.4 14.92 79 13.53 79C12.16 79 10.8 78.41 9.8 77.3L2.47 69.14C2.28 68.94 2.1 68.73 1.96 68.56L1.92 68.5201C0.73 67.0201 0 65.09 0 63C0 60.61 0.93 58.44 2.44 56.87C3.96 55.29 6.07 54.3 8.4 54.3C10.35 54.3 12.14 55 13.56 56.15Z" fill="#026637"/>
<path d="M73.6399 24.1099C79.3099 30.7099 82.7499 39.3099 82.7499 48.6999C82.7499 50.6099 82.5999 52.4999 82.3299 54.3399C84.4099 54.5499 86.2399 55.4899 87.5599 56.8699C89.0699 58.4399 89.9999 60.6099 89.9999 62.9999C89.9999 65.0799 89.2799 66.9999 88.0899 68.4999L88.0799 68.5099V68.5199C87.8699 68.7899 87.6699 68.9899 87.4899 69.1799L80.1799 77.2799C79.1799 78.3999 77.7999 78.9999 76.4099 78.9999C75.0399 78.9999 73.6699 78.4099 72.6799 77.2999L65.3499 69.1399C65.1599 68.9399 64.9799 68.7299 64.8399 68.5599L64.7999 68.5199C63.6099 67.0199 62.8799 65.0899 62.8799 62.9999C62.8799 60.6099 63.8099 58.4399 65.3199 56.8699C66.8299 55.2899 68.9499 54.2999 71.2799 54.2999C73.2299 54.2999 75.0199 54.9999 76.4399 56.1499C77.2799 55.4699 78.2699 54.9499 79.3299 54.6399C79.6599 52.7099 79.8399 50.7199 79.8399 48.6999C79.8399 44.3599 79.0499 40.2099 77.5999 36.3799C76.1599 32.5599 74.0599 29.0499 71.4399 25.9999C70.9099 25.3899 70.9799 24.4799 71.5899 23.9499C72.1999 23.4299 73.1099 23.4999 73.6399 24.1099Z" fill="#026637"/>
<path d="M20.8199 23.64C16.9899 27.33 14.0099 31.89 12.1899 37C11.9199 37.75 11.0899 38.15 10.3299 37.88C9.57991 37.61 9.17991 36.78 9.44991 36.02C13.2799 25.29 21.8199 16.81 32.5899 13.06C31.8599 11.78 31.4399 10.29 31.4399 8.7C31.4399 6.32 32.3699 4.15 33.8799 2.57C35.3899 1 37.5099 0 39.8399 0C41.7899 0 43.5799 0.7 44.9999 1.85C46.4199 0.7 48.2199 0 50.1599 0C52.4899 0 54.6099 1 56.1199 2.57C57.6299 4.15 58.5599 6.32 58.5599 8.7C58.5599 10.79 57.8399 12.7 56.6499 14.21L56.6399 14.22V14.23C56.4299 14.49 56.2299 14.69 56.0499 14.88L48.7399 22.98C47.7399 24.1 46.3599 24.71 44.9699 24.7H44.9399C43.5799 24.7 42.2299 24.1 41.2399 23L34.4999 15.49H34.4899C29.2999 17.13 24.6399 19.95 20.8199 23.64Z" fill="#026637"/>
</svg>
